<svg width="570" height="280" viewBox="0 0 570 280" fill="none" xmlns="http://www.w3.org/2000/svg">
<path d="M83.0483 257.999C71.5483 247.499 80.5482 217.499 116.548 187.999C113.048 192.333 110.048 196.999 103.048 207.499C104.548 205.499 112.048 197.499 118.048 193.999C70.0482 254.999 107.048 267.499 216.548 206.999C168.548 245.999 93.0482 268.999 83.0483 257.999Z" fill="url(#paint0_linear_2236_7)"/>
<path d="M367.048 43C322.548 143 177.548 211.5 123.548 232.999C194.018 219.083 270.048 165.5 323.548 120.5C370.548 80 381.55 55.1615 385.548 41.4994C389.048 54.4994 369.548 81.5 365.548 87.5C405.548 65.5 402.649 29.2539 390.048 20.5C373.457 8.97347 331.707 20.7544 295.048 41.4994C339.548 19 365.548 22.5 368.548 26C373.048 30.4763 367.582 41.8016 367.048 43Z" fill="url(#paint1_linear_2236_7)"/>
<path d="M136.548 160.5C1.04807 140.5 -15.4519 85 10.0481 0C28.5481 39.5 75.0481 54.5 133.548 31.5C159.548 23 190.548 21.5 207.548 22.5C218.548 21.5 250.548 32.5 266.548 39C275.348 47 304.881 60.6667 318.548 66.5C306.548 78.5 301.048 80.5 285.548 73.5C253.548 57 232.548 48 217.048 48C222.048 49 245.548 58.5 260.048 70C269.048 77.5 289.548 85.8333 299.048 89C292.048 105.5 270.688 104.811 256.548 94.5C232.548 77 193.048 58 183.548 68C197.548 68 217.048 78.5 228.048 85.5C240.548 96 256.548 102 269.048 106C255.048 125 238.548 117.5 225.048 108.5C202.548 93.5 176.548 82 157.548 83C165.548 84.5 180.048 91.5 187.048 95.5C196.548 102.5 213.548 113 234.548 119.5C229.048 127.5 218.548 136.5 189.048 119C167.048 105.5 141.048 90.5 113.048 94.5C117.548 86.5 127.548 74 168.048 54.5C151.548 57 125.048 66.5 105.548 90.5C94.5481 112 101.048 131.5 149.048 135.5C156.048 138.5 167.048 149.5 160.048 174C155.548 167 151.048 161.5 136.548 160.5Z" fill="url(#paint2_linear_2236_7)"/>
<path d="M433.096 118.501C568.669 138.004 585.372 193.443 560.184 278.536C541.539 239.104 494.984 224.274 436.569 247.489C410.6 256.084 379.606 257.698 362.603 256.76C351.606 257.8 319.566 246.918 303.542 240.476C294.713 232.509 265.13 218.95 251.442 213.167C263.398 201.123 268.891 199.103 284.416 206.046C316.476 222.429 337.509 231.352 353.009 231.295C348.005 230.313 324.471 220.899 309.929 209.453C300.901 201.986 280.371 193.728 270.859 190.596C277.799 174.07 299.161 174.681 313.339 184.94C337.403 202.352 376.972 221.207 386.436 211.172C372.436 211.224 352.897 200.795 341.872 193.835C329.333 183.381 313.311 177.44 300.797 173.486C314.727 154.435 331.255 161.874 344.787 170.825C367.342 185.742 393.384 197.147 412.38 196.077C404.375 194.606 389.849 187.66 382.835 183.685C373.309 176.72 356.271 166.282 335.247 159.859C340.718 151.839 351.185 142.801 380.749 160.193C402.798 173.612 428.853 188.517 456.838 184.414C452.367 192.43 442.413 204.967 401.985 224.615C418.476 222.055 444.941 212.458 464.353 188.386C475.274 166.846 468.702 147.37 420.688 143.546C413.677 140.572 402.637 129.612 409.547 105.087C414.073 112.07 418.593 117.554 433.096 118.501Z" fill="url(#paint3_linear_2236_7)"/>
<defs>
<linearGradient id="paint0_linear_2236_7" x1="404.548" y1="15.5" x2="185.548" y2="179.5" gradientUnits="userSpaceOnUse">
<stop stop-color="#D1D1D1"/>
<stop offset="1" stop-color="#EAEAEA"/>
</linearGradient>
<linearGradient id="paint1_linear_2236_7" x1="404.548" y1="15.5" x2="185.548" y2="179.5" gradientUnits="userSpaceOnUse">
<stop stop-color="#D1D1D1"/>
<stop offset="1" stop-color="#EAEAEA"/>
</linearGradient>
<linearGradient id="paint2_linear_2236_7" x1="0.0480981" y1="87.5" x2="153.548" y2="87.5" gradientUnits="userSpaceOnUse">
<stop stop-color="#28BAEC"/>
<stop offset="0.961667" stop-color="#A8E9FF"/>
</linearGradient>
<linearGradient id="paint3_linear_2236_7" x1="352.548" y1="197" x2="570.048" y2="200.5" gradientUnits="userSpaceOnUse">
<stop stop-color="#31BDED"/>
<stop offset="1" stop-color="#A8E9FF"/>
</linearGradient>
</defs>
</svg>
